<?xml version="1.0" standalone="no"?>
<!DOCTYPE svg PUBLIC "-//W3C//DTD SVG 20010904//EN"
 "http://www.w3.org/TR/2001/REC-SVG-20010904/DTD/svg10.dtd">
<svg version="1.0" xmlns="http://www.w3.org/2000/svg"
 width="1280.000000pt" height="640.000000pt" viewBox="0 0 1280.000000 640.000000"
 preserveAspectRatio="xMidYMid meet">
<metadata>
Created by potrace 1.15, written by Peter Selinger 2001-2017
</metadata>
<g transform="translate(0.000000,640.000000) scale(0.100000,-0.100000)"
fill="#000000" stroke="none">
<path d="M11195 4434 c-371 -62 -648 -251 -793 -539 -131 -261 -97 -512 98
-719 71 -75 131 -106 205 -106 67 0 108 16 160 61 48 43 75 100 75 164 0 69
-23 102 -124 177 -117 87 -128 115 -77 203 162 283 566 337 857 114 120 -92
237 -291 280 -475 23 -99 15 -269 -15 -347 -35 -90 -105 -174 -191 -232 -253
-170 -578 -147 -1110 77 -167 71 -424 198 -880 438 -854 449 -1263 633 -1760
791 -614 197 -1255 269 -1625 185 -456 -105 -860 -305 -1840 -914 -994 -618
-1161 -696 -1630 -759 -186 -25 -671 -25 -840 0 -369 55 -658 141 -970 291
-315 152 -536 300 -881 594 -100 85 -134 100 -134 60 1 -72 320 -375 600 -570
742 -517 1617 -737 2477 -623 342 45 699 199 1488 640 702 393 959 528 1245
654 185 82 438 170 581 202 121 27 359 36 512 19 574 -61 1158 -257 1912 -640
205 -105 310 -161 975 -525 894 -489 1305 -653 1745 -695 139 -13 281 -2 410
31 194 51 436 198 605 368 92 92 112 119 153 201 77 156 91 237 91 535 1 266
-5 325 -50 475 -67 219 -220 422 -433 574 -183 131 -483 258 -681 291 -115 18
-325 18 -435 -1z"/>
</g>
</svg>
